<?xml version="1.0" encoding="UTF-8" standalone="no"?>
<!-- Created with Inkscape (http://www.inkscape.org/) -->

<svg
   width="300mm"
   height="89mm"
   viewBox="0 0 300 89"
   version="1.1"
   id="svg5"
   inkscape:version="1.1.2 (b8e25be8, 2022-02-05)"
   sodipodi:docname="logo-white.svg"
   xmlns:inkscape="http://www.inkscape.org/namespaces/inkscape"
   xmlns:sodipodi="http://sodipodi.sourceforge.net/DTD/sodipodi-0.dtd"
   xmlns:xlink="http://www.w3.org/1999/xlink"
   xmlns="http://www.w3.org/2000/svg"
   xmlns:svg="http://www.w3.org/2000/svg">
  <sodipodi:namedview
     id="namedview7"
     pagecolor="#ffffff"
     bordercolor="#666666"
     borderopacity="1.0"
     inkscape:pageshadow="2"
     inkscape:pageopacity="0.0"
     inkscape:pagecheckerboard="true"
     inkscape:document-units="mm"
     showgrid="false"
     lock-margins="true"
     inkscape:zoom="0.32026164"
     inkscape:cx="688.49957"
     inkscape:cy="167.05091"
     inkscape:window-width="1312"
     inkscape:window-height="969"
     inkscape:window-x="344"
     inkscape:window-y="25"
     inkscape:window-maximized="0"
     inkscape:current-layer="text99" />
  <defs
     id="defs2">
    <color-profile
       name="Black---White"
       xlink:href="file:///Library/ColorSync/Profiles/Black%20&amp;%20White.icc"
       id="color-profile538" />
  </defs>
  <g
     inkscape:label="Layer 1"
     inkscape:groupmode="layer"
     id="layer1">
    <g
       aria-label="Oikolab"
       id="text99"
       style="font-size:71.5908px;line-height:1.25;font-family:Optima;-inkscape-font-specification:Optima;stroke-width:0.372868">
      <path
         d="m 90.674719,24.561964 q 0,-1.503406 1.073862,-2.577268 1.073862,-1.073862 2.577269,-1.073862 1.503407,0 2.577269,1.073862 1.073862,1.073862 1.073862,2.577268 0,1.503407 -1.073862,2.577269 -1.073862,1.073862 -2.577269,1.073862 -1.503407,0 -2.577269,-1.073862 -1.073862,-1.073862 -1.073862,-2.577269 z m 1.002271,25.844278 q 0,-3.221586 -0.143181,-6.729535 -0.07159,-3.57954 -0.429545,-6.657944 2.004542,0.357954 3.221586,0.357954 1.217044,0 3.221586,-0.357954 -0.357954,3.078404 -0.501136,6.657944 -0.07159,3.507949 -0.07159,6.729535 v 7.445443 q 0,3.221586 0.07159,6.801126 0.143182,3.507949 0.501136,6.371581 -1.646588,-0.143182 -3.221586,-0.143182 -1.574998,0 -3.221586,0.143182 0.357954,-2.863632 0.429545,-6.371581 0.143181,-3.57954 0.143181,-6.801126 z"
         style="fill:#ffffff"
         id="path27878" />
      <path
         d="m 110.24362,37.66308 q 0,-2.434087 -0.0716,-5.297719 0,-2.863632 -0.0716,-5.655673 -0.0716,-2.792041 -0.21478,-5.297719 -0.0716,-2.577268 -0.21477,-4.367038 2.00454,0.357954 3.22159,0.357954 1.21704,0 3.22158,-0.357954 -0.14318,1.78977 -0.28636,4.367038 -0.0716,2.505678 -0.14318,5.297719 -0.0716,2.792041 -0.14318,5.655673 0,2.863632 0,5.297719 v 13.029525 q 0,1.360226 0.85909,1.360226 0.57272,0 1.21704,-0.501136 0.71591,-0.501136 1.575,-1.145453 0.64432,-0.501135 2.14772,-1.932951 1.575,-1.431816 3.43636,-3.293177 1.93295,-1.932951 3.93749,-4.080675 2.00455,-2.147724 3.65114,-4.080676 1.43181,0.357954 2.72045,0.357954 0.78749,0 1.57499,-0.07159 0.7875,-0.143181 2.00455,-0.286363 -4.51022,3.651131 -8.66249,7.230671 -4.08068,3.507949 -7.8034,7.159079 4.08068,4.939765 8.37613,9.87953 4.36703,4.939765 8.87725,9.736349 -1.21704,-0.143182 -2.21931,-0.143182 -0.93068,0 -1.86136,0 -0.7875,0 -1.71818,0 -0.93068,0 -1.93295,0.143182 -1.575,-1.78977 -3.57954,-4.152266 -2.00454,-2.434087 -4.00909,-4.796584 -1.93295,-2.362496 -3.72272,-4.438629 -1.78977,-2.076133 -3.0784,-3.436358 -0.21477,-0.286364 -0.50114,-0.501136 -0.28636,-0.214772 -0.57272,-0.214772 -0.71591,0 -0.71591,0.859089 v 4.295448 q 0,3.221586 0.0716,6.29999 0.14318,3.006814 0.50113,6.085218 -1.64658,-0.143182 -3.22158,-0.143182 -1.575,0 -3.22159,0.143182 0.14318,-1.646588 0.21477,-4.152266 0.14319,-2.505678 0.21478,-5.297719 0.0716,-2.792041 0.0716,-5.655673 0.0716,-2.863632 0.0716,-5.297719 V 37.66308 Z"
         style="fill:#ffffff"
         id="path27880" />
      <path
         d="m 148.83105,54.128964 q 0,3.006813 0.50114,5.798854 0.57273,2.792041 1.86136,5.011356 1.28864,2.147724 3.43636,3.436358 2.14772,1.288635 5.29772,1.288635 3.14999,0 5.29772,-1.288635 2.14772,-1.288634 3.43636,-3.436358 1.28863,-2.219315 1.78977,-5.011356 0.57272,-2.792041 0.57272,-5.798854 0,-3.006814 -0.57272,-5.798855 -0.50114,-2.792041 -1.78977,-4.939765 -1.28864,-2.219315 -3.43636,-3.507949 -2.14773,-1.288634 -5.29772,-1.288634 -3.15,0 -5.29772,1.288634 -2.14772,1.288634 -3.43636,3.507949 -1.28863,2.147724 -1.86136,4.939765 -0.50114,2.792041 -0.50114,5.798855 z m -6.29999,0 q 0,-4.868174 1.50341,-8.232942 1.575,-3.436358 4.08068,-5.512491 2.50567,-2.147724 5.58408,-3.078405 3.14999,-1.002271 6.2284,-1.002271 3.14999,0 6.2284,1.002271 3.0784,0.930681 5.58408,3.078405 2.50568,2.076133 4.00908,5.512491 1.575,3.364768 1.575,8.232942 0,4.868174 -1.575,8.304532 -1.5034,3.364768 -4.00908,5.512492 -2.50568,2.076133 -5.58408,2.935222 -3.07841,0.85909 -6.2284,0.85909 -3.07841,0 -6.2284,-0.85909 -3.07841,-0.859089 -5.58408,-2.935222 -2.50568,-2.147724 -4.08068,-5.512492 -1.50341,-3.436358 -1.50341,-8.304532 z"
         style="fill:#ffffff"
         id="path27882" />
      <path
         d="m 187.17799,37.66308 q 0,-2.434087 -0.0716,-5.297719 0,-2.863632 -0.0716,-5.655673 -0.0716,-2.792041 -0.21477,-5.297719 -0.0716,-2.577268 -0.21478,-4.367038 2.00455,0.357954 3.22159,0.357954 1.21704,0 3.22159,-0.357954 -0.14319,1.78977 -0.28637,4.367038 -0.0716,2.505678 -0.14318,5.297719 -0.0716,2.792041 -0.14318,5.655673 0,2.863632 0,5.297719 v 12.957935 q 0,2.434087 0,5.297719 0.0716,2.863632 0.14318,5.655673 0.0716,2.792041 0.14318,5.297719 0.14318,2.505678 0.28637,4.152266 -1.64659,-0.143182 -3.22159,-0.143182 -1.575,0 -3.22159,0.143182 0.14319,-1.646588 0.21478,-4.152266 0.14318,-2.505678 0.21477,-5.297719 0.0716,-2.792041 0.0716,-5.655673 0.0716,-2.863632 0.0716,-5.297719 z"
         style="fill:#ffffff"
         id="path27884" />
      <path
         d="m 223.57073,53.198283 q -1.21704,0.429545 -2.86363,0.715908 -1.57499,0.286364 -3.22158,0.644318 -1.64659,0.286363 -3.29318,0.787498 -1.575,0.501136 -2.86363,1.360225 -1.21705,0.85909 -2.00454,2.147724 -0.71591,1.288635 -0.71591,3.293177 0,3.364768 1.93295,5.082947 1.93295,1.718179 4.29545,1.718179 2.72045,0 4.93976,-1.503407 2.29091,-1.503407 3.50795,-3.507949 z M 205.88781,40.455121 q 3.22158,-2.434087 5.94203,-3.293176 2.72045,-0.85909 5.58409,-0.85909 2.57726,0 4.72499,0.787499 2.14772,0.715908 3.65113,2.147724 1.50341,1.360225 2.3625,3.364767 0.85909,1.932952 0.85909,4.295448 0,4.080676 -0.14319,8.161351 -0.14318,4.009085 -0.14318,8.519305 0,0.85909 0,1.861361 0.0716,0.93068 0.35796,1.718179 0.28636,0.715908 0.78749,1.217043 0.57273,0.501136 1.64659,0.501136 0.35796,0 0.71591,0 0.42955,-0.07159 0.7875,-0.286363 v 1.574997 q -0.7875,0.357954 -2.00454,0.572727 -1.14546,0.214772 -2.57727,0.214772 -2.29091,0 -3.50795,-1.145453 -1.21704,-1.217043 -1.43182,-3.078404 -2.57726,2.577269 -5.08294,3.794312 -2.50568,1.217044 -6.15681,1.217044 -1.78977,0 -3.50795,-0.501136 -1.71818,-0.501135 -3.0784,-1.646588 -1.28864,-1.145453 -2.14773,-2.72045 -0.7875,-1.646589 -0.7875,-3.722722 0,-4.295448 2.64886,-6.657944 2.72045,-2.362496 7.44544,-3.149995 3.86591,-0.644317 6.01363,-1.073862 2.21932,-0.501136 3.22159,-1.002271 1.07386,-0.501136 1.28863,-1.145453 0.21477,-0.715908 0.21477,-1.78977 0,-1.78977 -0.42954,-3.436358 -0.42955,-1.646588 -1.36023,-2.863632 -0.93068,-1.217044 -2.43408,-1.932952 -1.50341,-0.787498 -3.65113,-0.787498 -2.86364,0 -5.36931,1.288634 -2.43409,1.288634 -3.65113,3.57954 h -0.7875 z"
         style="fill:#ffffff"
         id="path27886" />
      <path
         d="m 266.02407,52.91192 q 0,-3.293177 -0.85909,-5.798854 -0.78749,-2.577269 -2.14772,-4.295448 -1.28863,-1.718179 -3.0784,-2.577269 -1.71818,-0.93068 -3.57954,-0.93068 -2.21932,0 -4.29545,0.859089 -2.00454,0.787499 -3.50795,2.720451 -1.50341,1.86136 -2.43409,4.939765 -0.85909,3.006813 -0.85909,7.445442 0,14.389751 10.45226,14.389751 2.21931,0 4.08067,-1.145453 1.86136,-1.217044 3.22159,-3.436358 1.43182,-2.219315 2.21931,-5.297719 0.7875,-3.078405 0.7875,-6.872717 z m 6.29999,0.214773 q 0,4.152266 -1.28863,7.588624 -1.21704,3.436358 -3.43636,5.942036 -2.14772,2.434087 -5.15454,3.794313 -2.93522,1.288634 -6.37158,1.288634 -3.43636,0 -6.2284,-1.431816 -2.72045,-1.503407 -4.15226,-3.57954 -2.57727,2.076133 -4.79659,4.152266 h -1.28863 q 0.14318,-1.718179 0.21477,-4.152266 0.14318,-2.434087 0.21477,-5.154537 0.0716,-2.792041 0.0716,-5.655673 0.0716,-2.863632 0.0716,-5.297719 V 37.66308 q 0,-2.434087 -0.0716,-5.297719 0,-2.863632 -0.0716,-5.655673 -0.0716,-2.792041 -0.21477,-5.297719 -0.0716,-2.577268 -0.21477,-4.367038 2.00454,0.357954 3.22159,0.357954 0.78749,0 1.64658,-0.07159 0.85909,-0.143182 1.86136,-0.286363 -0.21477,1.431816 -0.35795,4.581811 -0.14318,3.078404 -0.21477,6.944307 -0.0716,3.794312 -0.14318,7.874988 -0.0716,4.009084 -0.14319,7.302261 h 0.14319 q 2.43408,-3.865903 5.36931,-5.655673 2.93522,-1.78977 6.80112,-1.78977 3.72272,0 6.44317,1.431816 2.72045,1.360225 4.51022,3.651131 1.78977,2.290905 2.64886,5.36931 0.93068,3.006813 0.93068,6.37158 z"
         style="fill:#ffffff"
         id="path27888" />
      <path
         d="m 51.21199,54.128964 q 0,3.006813 0.50114,5.798854 0.57273,2.792041 1.86136,5.011356 1.28864,2.147724 3.43636,3.436358 2.14772,1.288635 5.29772,1.288635 3.14999,0 5.29772,-1.288635 2.14772,-1.288634 3.43636,-3.436358 1.28863,-2.219315 1.78977,-5.011356 0.57272,-2.792041 0.57272,-5.798854 0,-3.006814 -0.57272,-5.798855 -0.50114,-2.792041 -1.78977,-4.939765 -1.28864,-2.219315 -3.43636,-3.507949 -2.14773,-1.288634 -5.29772,-1.288634 -3.15,0 -5.29772,1.288634 -2.14772,1.288634 -3.43636,3.507949 -1.28863,2.147724 -1.86136,4.939765 -0.50114,2.792041 -0.50114,5.798855 z m -6.29999,0 q 0,-4.868174 1.50341,-8.232942 1.575,-3.436358 4.08068,-5.512491 2.50567,-2.147724 5.58408,-3.078405 3.14999,-1.002271 6.2284,-1.002271 3.14999,0 6.2284,1.002271 3.0784,0.930681 5.58408,3.078405 2.50568,2.076133 4.00908,5.512491 1.575,3.364768 1.575,8.232942 0,4.868174 -1.575,8.304532 -1.5034,3.364768 -4.00908,5.512492 -2.50568,2.076133 -5.58408,2.935222 -3.07841,0.85909 -6.2284,0.85909 -3.07841,0 -6.2284,-0.85909 Q 53.00176,70.022121 50.49609,67.945988 47.99041,65.798264 46.41541,62.433496 44.912,58.997138 44.912,54.128964 Z"
         style="font-size:71.5908px;line-height:1.25;font-family:Optima;-inkscape-font-specification:Optima;fill:#ffffff;stroke-width:0.372868"
         id="path27882-3" />
    </g>
  </g>
</svg>
